# xmcd
#
# Track frame offsets:
#	182
#	10075
#	21252
#	35245
#	48957
#	58637
#	71657
#	89492
#	100377
#	110852
#	124157
#	136602
#	154127
#	166770
#	177227
#	193612
#	207865
#	222610
#	234272
#	246942
#	260792
#	270447
#	276882
#	295600
#
# Disc length: 4055 seconds
#
# Revision: 2
# Processed by: cddbd v1.5.1PL0 Copyright (c) Steve Scherf et al.
# Submitted via: audiograbber 1.81.02
#
DISCID=660fd518
DTITLE=Various Artist - Blues Anytime
DYEAR=1900
DGENRE=Blues
TTITLE0=John Mayall and The Bluesbreakers - I'm Your Witchdoctor
TTITLE1=Eric Clapton - Snake Drive
TTITLE2=T.S. McPhee - Ain't Gonna Cry No More
TTITLE3=Savoy Brown Blues Band - I Tried
TTITLE4=Eric Clapton - Tribute to Elmore
TTITLE5=Jo-Ann Kelly - I feel so good
TTITLE6=John Mayall and The Bluesbreakers - Telephone Blues
TTITLE7=T.S. McPhee - You don't love me
TTITLE8=Eric Clapton - West Coast Idea
TTITLE9=Jo-Ann Kelly - Ain't seen no whisky
TTITLE10=Stone's Masonry - Flapjacks
TTITLE11=Savoy Brown Blues Band - Cold Blooded Woman
TTITLE12=John Mayall and The Bluesbreakers - On Top of the World
TTITLE13=T.S. McPhee - Someone to love me
TTITLE14=Savoy Brown Blues Band - Can't quit you baby
TTITLE15=Eric Clapton and Jimmy Page - Draggin' my tail
TTITLE16=Dealing With the Devil - Dealing with the devil
TTITLE17=Jeremy Spencer - Who's knocking?
TTITLE18=Eric Clapton and Jimmy Page - Freight loader
TTITLE19=Jeremy Spencer - Look down at my woman
TTITLE20=Dharma Blues Band - Roll'em Pete
TTITLE21=Eric Clapton and Jimmy Page - Choker
TTITLE22=Savoy Brown Blues Band - True Blue
TTITLE23=T.S. McPhee - When you got a good friend
EXTD=
EXTT0=John mayall and The Bluesbreakers
EXTT1=Eric Clapton
EXTT2=T.S. McPhee
EXTT3=Savoy Brown Blues Band
EXTT4=Eric Clapton
EXTT5=Jo-Ann Kelly
EXTT6=John mayall and The Bluesbreakers
EXTT7=T.S. McPhee
EXTT8=Eric Clapton
EXTT9=Jo-Ann Kelly
EXTT10=Stone's Mansonry
EXTT11=Savoy Brown Blues Band
EXTT12=John mayall and The Bluesbreakers
EXTT13=T.S. McPhee
EXTT14=Savoy Brown Blues Band
EXTT15=Eric Clapton and Jimmy Page
EXTT16=Dharma Blues Band
EXTT17=Jeremy Spencer
EXTT18=Eric Clapton and Jimmy Page
EXTT19=Jeremy Spencer
EXTT20=Dharma Blues Band
EXTT21=Eric Clapton and Jimmy Page
EXTT22=Savoy Brown Blues Band
EXTT23=T.S. McPhee
PLAYORDER=
